<mxfile host="app.diagrams.net" agent="Mozilla/5.0 (Windows NT 10.0; Win64; x64) AppleWebKit/537.36 (KHTML, like Gecko) Chrome/133.0.0.0 Safari/537.36" version="26.0.16">
  <diagram name="Страница — 1" id="E-AfMycJwp59BGluEo-P">
    <mxGraphModel dx="1434" dy="746" grid="1" gridSize="10" guides="1" tooltips="1" connect="1" arrows="1" fold="1" page="1" pageScale="1" pageWidth="827" pageHeight="1169" math="0" shadow="0">
      <root>
        <mxCell id="0" />
        <mxCell id="1" parent="0" />
        <mxCell id="x-jM6y6ckDrfzqQGug9H-4" value="" style="rounded=0;whiteSpace=wrap;html=1;" vertex="1" parent="1">
          <mxGeometry x="160" y="30" width="650" height="710" as="geometry" />
        </mxCell>
        <mxCell id="x-jM6y6ckDrfzqQGug9H-5" value="Просмотр информации о мероприятиях" style="ellipse;whiteSpace=wrap;html=1;" vertex="1" parent="1">
          <mxGeometry x="320" y="50" width="120" height="80" as="geometry" />
        </mxCell>
        <mxCell id="x-jM6y6ckDrfzqQGug9H-8" style="edgeStyle=orthogonalEdgeStyle;rounded=0;orthogonalLoop=1;jettySize=auto;html=1;entryX=0;entryY=0.5;entryDx=0;entryDy=0;" edge="1" parent="1" source="x-jM6y6ckDrfzqQGug9H-1" target="x-jM6y6ckDrfzqQGug9H-5">
          <mxGeometry relative="1" as="geometry" />
        </mxCell>
        <mxCell id="x-jM6y6ckDrfzqQGug9H-36" style="edgeStyle=orthogonalEdgeStyle;rounded=0;orthogonalLoop=1;jettySize=auto;html=1;entryX=0.5;entryY=0;entryDx=0;entryDy=0;" edge="1" parent="1" source="x-jM6y6ckDrfzqQGug9H-1" target="x-jM6y6ckDrfzqQGug9H-10">
          <mxGeometry relative="1" as="geometry" />
        </mxCell>
        <mxCell id="x-jM6y6ckDrfzqQGug9H-1" value="Внешний пользователь" style="shape=umlActor;verticalLabelPosition=bottom;verticalAlign=top;html=1;outlineConnect=0;" vertex="1" parent="1">
          <mxGeometry x="60" y="80" width="30" height="60" as="geometry" />
        </mxCell>
        <mxCell id="x-jM6y6ckDrfzqQGug9H-13" style="edgeStyle=orthogonalEdgeStyle;rounded=0;orthogonalLoop=1;jettySize=auto;html=1;entryX=0.5;entryY=1;entryDx=0;entryDy=0;" edge="1" parent="1" source="x-jM6y6ckDrfzqQGug9H-9" target="x-jM6y6ckDrfzqQGug9H-12">
          <mxGeometry relative="1" as="geometry">
            <Array as="points">
              <mxPoint x="640" y="290" />
            </Array>
          </mxGeometry>
        </mxCell>
        <mxCell id="x-jM6y6ckDrfzqQGug9H-14" style="edgeStyle=orthogonalEdgeStyle;rounded=0;orthogonalLoop=1;jettySize=auto;html=1;entryX=0.5;entryY=1;entryDx=0;entryDy=0;" edge="1" parent="1" source="x-jM6y6ckDrfzqQGug9H-9" target="x-jM6y6ckDrfzqQGug9H-10">
          <mxGeometry relative="1" as="geometry">
            <Array as="points">
              <mxPoint x="280" y="290" />
            </Array>
          </mxGeometry>
        </mxCell>
        <mxCell id="x-jM6y6ckDrfzqQGug9H-15" style="edgeStyle=orthogonalEdgeStyle;rounded=0;orthogonalLoop=1;jettySize=auto;html=1;entryX=0.5;entryY=1;entryDx=0;entryDy=0;" edge="1" parent="1" source="x-jM6y6ckDrfzqQGug9H-9" target="x-jM6y6ckDrfzqQGug9H-11">
          <mxGeometry relative="1" as="geometry">
            <Array as="points">
              <mxPoint x="460" y="290" />
            </Array>
          </mxGeometry>
        </mxCell>
        <mxCell id="x-jM6y6ckDrfzqQGug9H-42" style="edgeStyle=orthogonalEdgeStyle;rounded=0;orthogonalLoop=1;jettySize=auto;html=1;entryX=0.5;entryY=1;entryDx=0;entryDy=0;" edge="1" parent="1" source="x-jM6y6ckDrfzqQGug9H-9" target="x-jM6y6ckDrfzqQGug9H-35">
          <mxGeometry relative="1" as="geometry">
            <Array as="points">
              <mxPoint x="75" y="170" />
              <mxPoint x="580" y="170" />
            </Array>
          </mxGeometry>
        </mxCell>
        <mxCell id="x-jM6y6ckDrfzqQGug9H-44" style="edgeStyle=orthogonalEdgeStyle;rounded=0;orthogonalLoop=1;jettySize=auto;html=1;entryX=0.5;entryY=1;entryDx=0;entryDy=0;exitX=1;exitY=0.3333333333333333;exitDx=0;exitDy=0;exitPerimeter=0;" edge="1" parent="1" source="x-jM6y6ckDrfzqQGug9H-9" target="x-jM6y6ckDrfzqQGug9H-5">
          <mxGeometry relative="1" as="geometry">
            <Array as="points">
              <mxPoint x="90" y="180" />
              <mxPoint x="380" y="180" />
            </Array>
          </mxGeometry>
        </mxCell>
        <mxCell id="x-jM6y6ckDrfzqQGug9H-46" style="edgeStyle=orthogonalEdgeStyle;rounded=0;orthogonalLoop=1;jettySize=auto;html=1;entryX=0.5;entryY=0;entryDx=0;entryDy=0;" edge="1" parent="1" target="x-jM6y6ckDrfzqQGug9H-24">
          <mxGeometry relative="1" as="geometry">
            <mxPoint x="75" y="243.28" as="sourcePoint" />
            <mxPoint x="247.57359312880726" y="459.99572875253807" as="targetPoint" />
            <Array as="points">
              <mxPoint x="75" y="273" />
              <mxPoint x="30" y="273" />
              <mxPoint x="30" y="440" />
              <mxPoint x="290" y="440" />
            </Array>
          </mxGeometry>
        </mxCell>
        <mxCell id="x-jM6y6ckDrfzqQGug9H-48" style="edgeStyle=orthogonalEdgeStyle;rounded=0;orthogonalLoop=1;jettySize=auto;html=1;entryX=0;entryY=0.5;entryDx=0;entryDy=0;" edge="1" parent="1" source="x-jM6y6ckDrfzqQGug9H-9" target="x-jM6y6ckDrfzqQGug9H-47">
          <mxGeometry relative="1" as="geometry">
            <Array as="points">
              <mxPoint x="610" y="290" />
              <mxPoint x="610" y="320" />
            </Array>
          </mxGeometry>
        </mxCell>
        <mxCell id="x-jM6y6ckDrfzqQGug9H-9" value="Участник" style="shape=umlActor;verticalLabelPosition=bottom;verticalAlign=top;html=1;outlineConnect=0;" vertex="1" parent="1">
          <mxGeometry x="60" y="230" width="30" height="60" as="geometry" />
        </mxCell>
        <mxCell id="x-jM6y6ckDrfzqQGug9H-10" value="Авторизация в системе&lt;span style=&quot;color: rgba(0, 0, 0, 0); font-family: monospace; font-size: 0px; text-align: start; text-wrap-mode: nowrap;&quot;&gt;%3CmxGraphModel%3E%3Croot%3E%3CmxCell%20id%3D%220%22%2F%3E%3CmxCell%20id%3D%221%22%20parent%3D%220%22%2F%3E%3CmxCell%20id%3D%222%22%20value%3D%22%D0%92%D0%BD%D0%B5%D1%88%D0%BD%D0%B8%D0%B9%20%D0%BF%D0%BE%D0%BB%D1%8C%D0%B7%D0%BE%D0%B2%D0%B0%D1%82%D0%B5%D0%BB%D1%8C%22%20style%3D%22shape%3DumlActor%3BverticalLabelPosition%3Dbottom%3BverticalAlign%3Dtop%3Bhtml%3D1%3BoutlineConnect%3D0%3B%22%20vertex%3D%221%22%20parent%3D%221%22%3E%3CmxGeometry%20x%3D%2260%22%20y%3D%2280%22%20width%3D%2230%22%20height%3D%2260%22%20as%3D%22geometry%22%2F%3E%3C%2FmxCell%3E%3C%2Froot%3E%3C%2FmxGraphModel%3E&lt;/span&gt;" style="ellipse;whiteSpace=wrap;html=1;" vertex="1" parent="1">
          <mxGeometry x="220" y="190" width="120" height="80" as="geometry" />
        </mxCell>
        <mxCell id="x-jM6y6ckDrfzqQGug9H-11" value="Редактирование профиля" style="ellipse;whiteSpace=wrap;html=1;" vertex="1" parent="1">
          <mxGeometry x="400" y="190" width="120" height="80" as="geometry" />
        </mxCell>
        <mxCell id="x-jM6y6ckDrfzqQGug9H-12" value="Участие в мероприятиях" style="ellipse;whiteSpace=wrap;html=1;" vertex="1" parent="1">
          <mxGeometry x="580" y="190" width="120" height="80" as="geometry" />
        </mxCell>
        <mxCell id="x-jM6y6ckDrfzqQGug9H-21" style="edgeStyle=orthogonalEdgeStyle;rounded=0;orthogonalLoop=1;jettySize=auto;html=1;entryX=0.5;entryY=1;entryDx=0;entryDy=0;" edge="1" parent="1" source="x-jM6y6ckDrfzqQGug9H-16" target="x-jM6y6ckDrfzqQGug9H-20">
          <mxGeometry relative="1" as="geometry">
            <Array as="points">
              <mxPoint x="190" y="390" />
              <mxPoint x="190" y="430" />
              <mxPoint x="474" y="430" />
            </Array>
          </mxGeometry>
        </mxCell>
        <mxCell id="x-jM6y6ckDrfzqQGug9H-22" style="edgeStyle=orthogonalEdgeStyle;rounded=0;orthogonalLoop=1;jettySize=auto;html=1;exitX=1;exitY=0.3333333333333333;exitDx=0;exitDy=0;exitPerimeter=0;entryX=0.5;entryY=1;entryDx=0;entryDy=0;" edge="1" parent="1" source="x-jM6y6ckDrfzqQGug9H-16" target="x-jM6y6ckDrfzqQGug9H-18">
          <mxGeometry relative="1" as="geometry">
            <Array as="points">
              <mxPoint x="90" y="390" />
              <mxPoint x="190" y="390" />
              <mxPoint x="190" y="430" />
              <mxPoint x="290" y="430" />
            </Array>
          </mxGeometry>
        </mxCell>
        <mxCell id="x-jM6y6ckDrfzqQGug9H-38" style="edgeStyle=orthogonalEdgeStyle;rounded=0;orthogonalLoop=1;jettySize=auto;html=1;entryX=0;entryY=0.5;entryDx=0;entryDy=0;" edge="1" parent="1" target="x-jM6y6ckDrfzqQGug9H-10">
          <mxGeometry relative="1" as="geometry">
            <mxPoint x="60" y="350" as="sourcePoint" />
            <mxPoint x="190" y="220" as="targetPoint" />
          </mxGeometry>
        </mxCell>
        <mxCell id="x-jM6y6ckDrfzqQGug9H-50" style="edgeStyle=orthogonalEdgeStyle;rounded=0;orthogonalLoop=1;jettySize=auto;html=1;entryX=0;entryY=1;entryDx=0;entryDy=0;" edge="1" parent="1" source="x-jM6y6ckDrfzqQGug9H-16" target="x-jM6y6ckDrfzqQGug9H-49">
          <mxGeometry relative="1" as="geometry">
            <Array as="points">
              <mxPoint x="190" y="390" />
              <mxPoint x="190" y="430" />
              <mxPoint x="568" y="430" />
            </Array>
          </mxGeometry>
        </mxCell>
        <mxCell id="x-jM6y6ckDrfzqQGug9H-16" value="Организатор" style="shape=umlActor;verticalLabelPosition=bottom;verticalAlign=top;html=1;outlineConnect=0;" vertex="1" parent="1">
          <mxGeometry x="60" y="330" width="30" height="60" as="geometry" />
        </mxCell>
        <mxCell id="x-jM6y6ckDrfzqQGug9H-18" value="Управление мероприятиями, участниками, модераторами, жюри" style="ellipse;whiteSpace=wrap;html=1;" vertex="1" parent="1">
          <mxGeometry x="210" y="300" width="160" height="100" as="geometry" />
        </mxCell>
        <mxCell id="x-jM6y6ckDrfzqQGug9H-52" style="edgeStyle=orthogonalEdgeStyle;rounded=0;orthogonalLoop=1;jettySize=auto;html=1;entryX=0.819;entryY=0.13;entryDx=0;entryDy=0;exitX=0.5;exitY=0;exitDx=0;exitDy=0;entryPerimeter=0;" edge="1" parent="1" source="x-jM6y6ckDrfzqQGug9H-20" target="x-jM6y6ckDrfzqQGug9H-18">
          <mxGeometry relative="1" as="geometry">
            <Array as="points">
              <mxPoint x="474" y="313" />
            </Array>
          </mxGeometry>
        </mxCell>
        <mxCell id="x-jM6y6ckDrfzqQGug9H-55" value="&amp;lt;&amp;lt;include&amp;gt;&amp;gt;" style="edgeLabel;html=1;align=center;verticalAlign=middle;resizable=0;points=[];" vertex="1" connectable="0" parent="x-jM6y6ckDrfzqQGug9H-52">
          <mxGeometry x="0.2209" y="1" relative="1" as="geometry">
            <mxPoint as="offset" />
          </mxGeometry>
        </mxCell>
        <mxCell id="x-jM6y6ckDrfzqQGug9H-20" value="Добавление событий и активностей&amp;nbsp;" style="ellipse;whiteSpace=wrap;html=1;" vertex="1" parent="1">
          <mxGeometry x="414" y="310" width="120" height="80" as="geometry" />
        </mxCell>
        <mxCell id="x-jM6y6ckDrfzqQGug9H-27" style="edgeStyle=orthogonalEdgeStyle;rounded=0;orthogonalLoop=1;jettySize=auto;html=1;entryX=0.5;entryY=1;entryDx=0;entryDy=0;" edge="1" parent="1" target="x-jM6y6ckDrfzqQGug9H-26">
          <mxGeometry relative="1" as="geometry">
            <mxPoint x="90" y="560" as="sourcePoint" />
            <mxPoint x="650" y="590" as="targetPoint" />
          </mxGeometry>
        </mxCell>
        <mxCell id="x-jM6y6ckDrfzqQGug9H-28" style="edgeStyle=orthogonalEdgeStyle;rounded=0;orthogonalLoop=1;jettySize=auto;html=1;entryX=0.5;entryY=1;entryDx=0;entryDy=0;" edge="1" parent="1" source="x-jM6y6ckDrfzqQGug9H-23" target="x-jM6y6ckDrfzqQGug9H-24">
          <mxGeometry relative="1" as="geometry">
            <Array as="points">
              <mxPoint x="75" y="560" />
              <mxPoint x="290" y="560" />
            </Array>
          </mxGeometry>
        </mxCell>
        <mxCell id="x-jM6y6ckDrfzqQGug9H-29" style="edgeStyle=orthogonalEdgeStyle;rounded=0;orthogonalLoop=1;jettySize=auto;html=1;entryX=0.5;entryY=1;entryDx=0;entryDy=0;" edge="1" parent="1" source="x-jM6y6ckDrfzqQGug9H-23" target="x-jM6y6ckDrfzqQGug9H-25">
          <mxGeometry relative="1" as="geometry">
            <Array as="points">
              <mxPoint x="75" y="560" />
              <mxPoint x="474" y="560" />
            </Array>
          </mxGeometry>
        </mxCell>
        <mxCell id="x-jM6y6ckDrfzqQGug9H-39" style="edgeStyle=orthogonalEdgeStyle;rounded=0;orthogonalLoop=1;jettySize=auto;html=1;entryX=0;entryY=0.5;entryDx=0;entryDy=0;" edge="1" parent="1" source="x-jM6y6ckDrfzqQGug9H-23" target="x-jM6y6ckDrfzqQGug9H-10">
          <mxGeometry relative="1" as="geometry">
            <Array as="points">
              <mxPoint x="140" y="510" />
              <mxPoint x="140" y="230" />
            </Array>
          </mxGeometry>
        </mxCell>
        <mxCell id="x-jM6y6ckDrfzqQGug9H-23" value="Модератор" style="shape=umlActor;verticalLabelPosition=bottom;verticalAlign=top;html=1;outlineConnect=0;" vertex="1" parent="1">
          <mxGeometry x="60" y="480" width="30" height="60" as="geometry" />
        </mxCell>
        <mxCell id="x-jM6y6ckDrfzqQGug9H-56" style="edgeStyle=orthogonalEdgeStyle;rounded=0;orthogonalLoop=1;jettySize=auto;html=1;entryX=0;entryY=0;entryDx=0;entryDy=0;exitX=1;exitY=0;exitDx=0;exitDy=0;" edge="1" parent="1" source="x-jM6y6ckDrfzqQGug9H-24" target="x-jM6y6ckDrfzqQGug9H-25">
          <mxGeometry relative="1" as="geometry" />
        </mxCell>
        <mxCell id="x-jM6y6ckDrfzqQGug9H-57" value="&amp;lt;&amp;lt;include&amp;gt;&amp;gt;" style="edgeLabel;html=1;align=center;verticalAlign=middle;resizable=0;points=[];" vertex="1" connectable="0" parent="x-jM6y6ckDrfzqQGug9H-56">
          <mxGeometry x="-0.0605" relative="1" as="geometry">
            <mxPoint as="offset" />
          </mxGeometry>
        </mxCell>
        <mxCell id="x-jM6y6ckDrfzqQGug9H-24" value="Регистрация на мероприятие" style="ellipse;whiteSpace=wrap;html=1;" vertex="1" parent="1">
          <mxGeometry x="230" y="460" width="120" height="80" as="geometry" />
        </mxCell>
        <mxCell id="x-jM6y6ckDrfzqQGug9H-25" value="Выбор активности для модерации" style="ellipse;whiteSpace=wrap;html=1;" vertex="1" parent="1">
          <mxGeometry x="414" y="460" width="120" height="80" as="geometry" />
        </mxCell>
        <mxCell id="x-jM6y6ckDrfzqQGug9H-26" value="Координация участников" style="ellipse;whiteSpace=wrap;html=1;" vertex="1" parent="1">
          <mxGeometry x="590" y="460" width="120" height="80" as="geometry" />
        </mxCell>
        <mxCell id="x-jM6y6ckDrfzqQGug9H-33" style="edgeStyle=orthogonalEdgeStyle;rounded=0;orthogonalLoop=1;jettySize=auto;html=1;entryX=0.5;entryY=1;entryDx=0;entryDy=0;" edge="1" parent="1" source="x-jM6y6ckDrfzqQGug9H-30" target="x-jM6y6ckDrfzqQGug9H-32">
          <mxGeometry relative="1" as="geometry">
            <Array as="points">
              <mxPoint x="75" y="710" />
              <mxPoint x="490" y="710" />
            </Array>
          </mxGeometry>
        </mxCell>
        <mxCell id="x-jM6y6ckDrfzqQGug9H-34" style="edgeStyle=orthogonalEdgeStyle;rounded=0;orthogonalLoop=1;jettySize=auto;html=1;entryX=0.5;entryY=1;entryDx=0;entryDy=0;" edge="1" parent="1" source="x-jM6y6ckDrfzqQGug9H-30" target="x-jM6y6ckDrfzqQGug9H-31">
          <mxGeometry relative="1" as="geometry">
            <Array as="points">
              <mxPoint x="75" y="710" />
              <mxPoint x="290" y="710" />
            </Array>
          </mxGeometry>
        </mxCell>
        <mxCell id="x-jM6y6ckDrfzqQGug9H-40" style="edgeStyle=orthogonalEdgeStyle;rounded=0;orthogonalLoop=1;jettySize=auto;html=1;entryX=0;entryY=0.5;entryDx=0;entryDy=0;" edge="1" parent="1" source="x-jM6y6ckDrfzqQGug9H-30" target="x-jM6y6ckDrfzqQGug9H-10">
          <mxGeometry relative="1" as="geometry">
            <Array as="points">
              <mxPoint x="140" y="660" />
              <mxPoint x="140" y="230" />
            </Array>
          </mxGeometry>
        </mxCell>
        <mxCell id="x-jM6y6ckDrfzqQGug9H-30" value="Жюри" style="shape=umlActor;verticalLabelPosition=bottom;verticalAlign=top;html=1;outlineConnect=0;" vertex="1" parent="1">
          <mxGeometry x="60" y="630" width="30" height="60" as="geometry" />
        </mxCell>
        <mxCell id="x-jM6y6ckDrfzqQGug9H-58" style="edgeStyle=orthogonalEdgeStyle;rounded=0;orthogonalLoop=1;jettySize=auto;html=1;entryX=0;entryY=0;entryDx=0;entryDy=0;exitX=1;exitY=0;exitDx=0;exitDy=0;" edge="1" parent="1" source="x-jM6y6ckDrfzqQGug9H-31" target="x-jM6y6ckDrfzqQGug9H-32">
          <mxGeometry relative="1" as="geometry" />
        </mxCell>
        <mxCell id="x-jM6y6ckDrfzqQGug9H-59" value="&amp;lt;&amp;lt;include&amp;gt;&amp;gt;" style="edgeLabel;html=1;align=center;verticalAlign=middle;resizable=0;points=[];" vertex="1" connectable="0" parent="x-jM6y6ckDrfzqQGug9H-58">
          <mxGeometry x="-0.0695" y="-1" relative="1" as="geometry">
            <mxPoint as="offset" />
          </mxGeometry>
        </mxCell>
        <mxCell id="x-jM6y6ckDrfzqQGug9H-31" value="Просмотр информации об активностях" style="ellipse;whiteSpace=wrap;html=1;" vertex="1" parent="1">
          <mxGeometry x="230" y="610" width="120" height="80" as="geometry" />
        </mxCell>
        <mxCell id="x-jM6y6ckDrfzqQGug9H-32" value="Оценка участников" style="ellipse;whiteSpace=wrap;html=1;" vertex="1" parent="1">
          <mxGeometry x="430" y="610" width="120" height="80" as="geometry" />
        </mxCell>
        <mxCell id="x-jM6y6ckDrfzqQGug9H-43" style="edgeStyle=orthogonalEdgeStyle;rounded=0;orthogonalLoop=1;jettySize=auto;html=1;exitX=0;exitY=1;exitDx=0;exitDy=0;entryX=1;entryY=0;entryDx=0;entryDy=0;" edge="1" parent="1" source="x-jM6y6ckDrfzqQGug9H-35" target="x-jM6y6ckDrfzqQGug9H-10">
          <mxGeometry relative="1" as="geometry">
            <Array as="points">
              <mxPoint x="538" y="150" />
              <mxPoint x="322" y="150" />
            </Array>
          </mxGeometry>
        </mxCell>
        <mxCell id="x-jM6y6ckDrfzqQGug9H-51" value="&amp;lt;&amp;lt;include&amp;gt;&amp;gt;" style="edgeLabel;html=1;align=center;verticalAlign=middle;resizable=0;points=[];" vertex="1" connectable="0" parent="x-jM6y6ckDrfzqQGug9H-43">
          <mxGeometry x="-0.221" y="-1" relative="1" as="geometry">
            <mxPoint as="offset" />
          </mxGeometry>
        </mxCell>
        <mxCell id="x-jM6y6ckDrfzqQGug9H-35" value="Регистрация в системе" style="ellipse;whiteSpace=wrap;html=1;" vertex="1" parent="1">
          <mxGeometry x="520" y="50" width="120" height="80" as="geometry" />
        </mxCell>
        <mxCell id="x-jM6y6ckDrfzqQGug9H-47" value="Просмотр результатов и баллов" style="ellipse;whiteSpace=wrap;html=1;" vertex="1" parent="1">
          <mxGeometry x="660" y="280" width="120" height="80" as="geometry" />
        </mxCell>
        <mxCell id="x-jM6y6ckDrfzqQGug9H-49" value="Изменение активностей" style="ellipse;whiteSpace=wrap;html=1;" vertex="1" parent="1">
          <mxGeometry x="550" y="350" width="120" height="80" as="geometry" />
        </mxCell>
      </root>
    </mxGraphModel>
  </diagram>
</mxfile>
